<svg preserveAspectRatio="none" width="100%" height="100%" overflow="visible" style="display: block;" viewBox="0 0 95.9184 36.348" fill="none" xmlns="http://www.w3.org/2000/svg">
<g id="logo h 2" clip-path="url(#clip0_0_10)">
<g id="Group">
<g id="Group_2">
<path id="Vector" d="M91.5926 17.2764C91.5015 14.7311 90.4931 12.2604 88.7136 10.3496C88.3997 10.0119 88.064 9.69319 87.7096 9.39788C87.4622 9.19174 87.1989 8.98707 86.9226 8.7897C85.7681 7.96662 84.3951 7.29119 83.0106 7.29119C82.1614 7.29119 81.37 7.47101 80.6452 7.83504C80.6307 7.84235 80.6148 7.84966 80.6004 7.85843C79.8943 8.21661 79.278 8.70783 78.7587 9.33063C78.2263 9.96512 77.8096 10.7195 77.5101 11.5894C76.9951 13.0864 76.7983 14.987 77.4609 16.4694C77.9369 17.5352 78.8744 18.3436 79.9247 18.8334C81.7274 19.6755 83.815 19.5351 85.6234 18.791C85.8737 18.6886 86.1182 18.5717 86.3526 18.4357C86.7446 18.2106 87.1092 17.9328 87.4145 17.598C87.7414 17.2398 87.9353 16.8115 88.2015 16.4124C88.4402 16.0542 88.6181 17.2355 88.6225 17.3217C88.6514 17.8919 88.5559 18.465 88.3765 19.0044C87.9295 20.345 87.0166 21.5775 85.8766 22.3947C84.1926 23.6008 81.982 24.0277 79.9725 23.5672C75.9332 22.6418 73.3754 18.5995 73.0875 14.6068C73.0007 13.3934 73.0817 12.6244 73.2133 11.6186C71.823 13.3145 70.9955 15.4577 70.9955 17.7881C70.9955 22.0205 73.7298 25.6359 77.5854 27.0759C78.737 27.5057 79.9884 27.7426 81.2977 27.7426C85.9128 27.7426 89.8204 24.8099 91.1311 20.769C91.1441 20.7295 91.1572 20.6901 91.1687 20.6506C91.4364 19.75 91.5796 18.8319 91.6013 17.9182V17.9138C91.6071 17.7018 91.6056 17.4898 91.5984 17.2778L91.5926 17.2764ZM85.6422 14.9036C84.7076 14.889 83.7644 14.9226 82.8312 14.8378C82.3277 14.7911 81.8243 14.7004 81.3483 14.5264C81.2919 14.5045 81.2355 14.4826 81.179 14.4592C80.6495 14.2384 80.2792 13.8978 80.0636 13.3525C79.8032 12.6975 80.136 11.9285 80.7841 11.6683C81.5566 11.3569 82.6055 11.8335 83.2797 12.2107C84.0074 12.62 84.6599 13.1566 85.2892 13.7048C85.7218 14.082 86.137 14.5001 86.516 14.9387C86.2267 14.9182 85.9345 14.9095 85.6437 14.9051L85.6422 14.9036Z" fill="var(--fill-0, #1F50AB)"/>
<path id="Vector_2" d="M95.8388 14.639C95.3904 10.1493 92.834 6.376 89.2548 4.23861C89.0667 4.12312 88.8714 4.0237 88.6746 3.91698C88.6414 3.9009 88.6095 3.87604 88.569 3.8585C88.4301 3.78394 88.2826 3.71084 88.1364 3.63628C88.0062 3.5778 87.8746 3.52079 87.7444 3.46377C85.7016 2.57197 83.4143 2.1597 81.046 2.39946C73.6286 3.15091 68.1889 9.85254 68.9325 17.348C69.0222 18.2559 69.1944 19.1316 69.4476 19.9722C69.5286 20.2281 69.611 20.4927 69.7094 20.7398C69.8729 21.1857 70.0523 21.6155 70.2563 22.0278C70.0031 21.4415 69.7991 20.8304 69.6429 20.212C69.6024 20.0629 69.5691 19.9225 69.5373 19.7749C69.5286 19.7412 69.5286 19.7091 69.5213 19.6842C69.4721 19.4372 69.4316 19.1974 69.3984 18.9503C69.1611 17.2091 69.3087 15.3846 69.9134 13.6098C70.9594 10.5645 73.1324 8.25316 75.819 6.94909C75.8146 6.9564 75.8074 6.96663 75.7987 6.98125C77.4075 6.14355 79.2318 5.67133 81.1661 5.67133C86.6738 5.67133 91.2961 9.50167 92.5663 14.6697C92.821 15.6361 92.9555 16.6536 92.9555 17.7033C92.9555 17.8436 92.9555 17.9752 92.9468 18.1155C92.8571 20.8143 91.8444 23.2909 90.227 25.2061C89.22 26.3976 87.9787 27.38 86.574 28.0803C85.0491 28.8405 83.3304 29.2674 81.5119 29.2674H81.2905C81.1675 29.2674 81.046 29.2586 80.923 29.2586C80.0651 29.2089 79.2246 29.0686 78.4231 28.8376C77.639 28.6402 76.5525 28.301 76.2747 28.1768C76.4382 28.2601 76.6016 28.3332 76.7564 28.4165C77.4104 28.7206 78.0903 28.9721 78.792 29.168C80.3559 29.6036 82.0211 29.7601 83.7239 29.589C83.8136 29.5802 83.9033 29.5729 83.9858 29.5554C87.5954 29.127 90.716 27.2777 92.8557 24.6271C95.0359 21.9196 96.2049 18.3787 95.8374 14.639H95.8388Z" fill="var(--fill-0, #1F50AB)"/>
</g>
<path id="Vector_3" d="M92.1452 32.4062C91.4031 33.0422 90.6508 33.5963 89.9375 34.1416C88.3042 35.3886 86.9457 36.1591 84.4949 36.1898H72.6245C73.5678 35.3682 74.3509 34.6752 74.974 34.1109C76.1748 33.0246 76.4641 32.6285 77.8559 32.4589C78.2118 32.415 78.5691 32.3989 78.9279 32.4004L81.5392 32.4062C83.1914 32.4092 84.845 32.4004 86.4972 32.4018C87.7703 32.4018 89.0449 32.4048 90.318 32.4062C90.9271 32.4062 91.5347 32.4062 92.1438 32.4077L92.1452 32.4062Z" fill="var(--fill-0, #1F50AB)"/>
</g>
<g id="Vector_4">
</g>
<path id="Vector_5" d="M62.0315 7.9549C61.3125 6.8555 60.32 6.3058 59.0512 6.3058C58.4653 6.3058 57.9286 6.43007 57.441 6.67568C56.952 6.92275 56.531 7.26046 56.1751 7.69028C55.8192 8.1201 55.54 8.6274 55.3389 9.21218C55.1364 9.79697 55.0351 10.4212 55.0351 11.0835C55.0351 12.1405 55.3447 12.965 55.9653 13.5571C56.586 14.1492 57.4613 14.4445 58.5912 14.4445C59.2465 14.4445 59.8006 14.3115 60.2549 14.0425C60.7077 13.775 61.039 13.3802 61.2488 12.8583H61.353V13.6609C61.353 14.5776 61.0983 15.2121 60.5891 15.5629C60.0798 15.9153 59.2957 16.0907 58.2353 16.0907H52.0013H51.3112C50.6833 16.0907 50.2334 15.9855 49.9614 15.7735C49.6894 15.5615 49.5534 15.1609 49.5534 14.5688V2.83657H47.6076V14.7589C47.6076 16.098 47.907 17.0527 48.5074 17.6228C49.1064 18.193 50.0902 18.4796 51.4573 18.4796H51.4776L51.4978 18.4591V18.4796H58.2338C59.099 18.4796 59.8368 18.3845 60.4516 18.1945C61.0651 18.0044 61.5714 17.6842 61.9678 17.2325C62.3657 16.7822 62.655 16.1726 62.8359 15.4036C63.0167 14.6361 63.1079 13.6741 63.1079 12.5177C63.1079 10.5733 62.7491 9.05137 62.03 7.95197L62.0315 7.9549ZM57.3209 11.3832C56.042 11.0119 56.301 9.08207 57.632 9.06745H57.6638C59.0165 9.06745 60.0813 10.2765 60.8596 11.2078C61.0303 11.4095 61.1721 11.6215 61.3197 11.832C59.9337 11.7311 58.4335 11.7063 57.3195 11.3847L57.3209 11.3832Z" fill="var(--fill-0, #1F50AB)"/>
<path id="Vector_6" d="M45.4988 10.0236H43.1754V14.9986C43.1754 15.5088 42.805 15.9416 42.3059 16.0118C41.992 16.0556 37.5158 16.079 37.5158 16.079C37.4883 14.1668 37.128 12.6799 36.4336 11.6171C35.7392 10.5542 34.7771 10.0236 33.5445 10.0236C32.9557 10.0236 32.4146 10.1522 31.9241 10.4066C31.4337 10.6595 31.0098 11.0045 30.6525 11.4358C30.2951 11.8686 30.0145 12.3817 29.8119 12.9753C29.6079 13.5703 29.5067 14.2077 29.5067 14.886C29.5067 16.0337 29.8177 16.9182 30.4427 17.5424C31.0662 18.1667 31.9458 18.4766 33.0801 18.4766H35.6032C35.3355 19.3275 34.7901 19.9883 33.9626 20.462C33.1351 20.9371 31.9864 21.1739 30.5165 21.1739H29.2969V23.4254H30.6004C32.4768 23.4254 33.9727 22.9824 35.0881 22.0979C36.2021 21.2134 36.9342 20.1067 37.2843 18.4766H41.1934C42.2422 18.4766 43.3519 18.2515 44.2098 17.6097C45.3759 16.7354 45.4988 15.4226 45.4988 14.0717V10.0221V10.0236ZM35.771 16.079H33.1654C32.5347 16.079 32.0587 15.9606 31.7361 15.7252C31.4149 15.4913 31.2529 15.1112 31.2529 14.582C31.2529 13.9416 31.4424 13.4212 31.82 13.022C32.1976 12.6244 32.7097 12.4241 33.3535 12.4241C34.0682 12.4241 34.6498 12.7194 35.0983 13.31C35.5468 13.9021 35.7696 14.6887 35.7696 15.6726V16.079H35.771Z" fill="var(--fill-0, #1F50AB)"/>
<path id="Vector_7" d="M25.3773 10.025V15.0045C25.3773 15.5176 25.0025 15.9518 24.4991 16.0191C24.1938 16.0586 23.8394 16.079 23.4328 16.079H19.9433C18.851 16.079 18.3042 15.5191 18.3042 14.4007V11.1712H16.4741V14.4007C16.4741 15.4928 15.7449 15.9928 14.7394 16.0586C13.3158 16.1507 11.8836 16.1594 10.4585 16.0659C9.6122 16.0103 8.708 15.6477 8.23491 14.8963C7.68516 14.022 7.69673 12.6434 7.69818 11.6449C7.70252 9.94025 7.74447 8.24291 7.74447 6.53826H6.00261L5.99103 7.31602L3.60392 8.58647C3.00064 8.91395 2.47836 9.23558 2.03711 9.55283C1.59586 9.87153 1.22839 10.2078 0.9347 10.5616C0.639567 10.9168 0.422557 11.294 0.282223 11.699C0.14189 12.1025 0.0724476 12.5455 0.0724476 13.0264C0.0724476 13.9753 0.331412 14.7106 0.850789 15.234C1.36872 15.7574 2.11234 16.0205 3.07876 16.0205C3.80646 16.0205 4.39528 15.848 4.84377 15.5001C5.29226 15.1536 5.62212 14.5834 5.83334 13.7896L5.9375 13.0118V13.2677C5.69445 18.7383 9.8596 18.4781 11.1342 18.4781H13.53C14.4689 18.4781 15.1662 18.2939 15.6205 17.9255C16.0762 17.5571 16.3887 16.9343 16.5565 16.0556H16.6824C16.8661 16.8919 17.2408 17.5044 17.8079 17.8933C18.3751 18.2822 19.178 18.4766 20.2153 18.4766L20.2356 18.4576V18.4766H23.4314C24.9172 18.4766 26.0167 18.1565 26.7314 17.5103C27.9785 16.3831 27.6993 14.6346 27.6993 13.1171V10.025H25.3758H25.3773ZM5.83334 12.1756C5.83334 12.7136 5.66118 13.0893 5.3183 13.3028C4.97398 13.5147 4.38226 13.62 3.54171 13.62C2.89647 13.62 2.44509 13.5294 2.18612 13.3437C1.92571 13.1595 1.79695 12.8627 1.79695 12.4519C1.79695 12.0133 1.96477 11.642 2.30186 11.3379C2.63895 11.0338 3.18437 10.6829 3.94101 10.2853L5.83334 9.30868V12.177V12.1756Z" fill="var(--fill-0, #1F50AB)"/>
<path id="Vector_8" d="M60.7756 3.57195L59.8193 2.60559C59.5763 2.35998 59.1813 2.35998 58.9368 2.60559L57.982 3.57048L57.0271 2.60559C56.7841 2.35998 56.3891 2.35998 56.1446 2.60559L55.1883 3.57195C54.9453 3.81756 54.9453 4.21667 55.1883 4.46374L56.1446 5.4301C56.3877 5.67571 56.7826 5.67571 57.0271 5.4301L57.982 4.4652L58.9368 5.4301C59.1799 5.67571 59.5748 5.67571 59.8193 5.4301L60.7756 4.46374C61.0187 4.21813 61.0187 3.81902 60.7756 3.57195Z" fill="var(--fill-0, #1F50AB)"/>
<path id="Vector_9" d="M14.7176 20.6169L13.7614 19.6506C13.5183 19.405 13.1233 19.405 12.8788 19.6506L11.924 20.6155L10.9692 19.6506C10.7261 19.405 10.3311 19.405 10.0867 19.6506L9.13036 20.6169C8.88731 20.8626 8.88731 21.2617 9.13036 21.5087L10.0867 22.4751C10.3297 22.7207 10.7247 22.7207 10.9692 22.4751L11.924 21.5102L12.8788 22.4751C13.1219 22.7207 13.5169 22.7207 13.7614 22.4751L14.7176 21.5087C14.9607 21.2631 14.9607 20.864 14.7176 20.6169Z" fill="var(--fill-0, #1F50AB)"/>
<path id="Vector_10" d="M8.28812 3.57634L7.33183 2.60999C7.08878 2.36438 6.69383 2.36438 6.44933 2.60999L5.49448 3.57488L4.53964 2.60999C4.29659 2.36438 3.90163 2.36438 3.65713 2.60999L2.70084 3.57634C2.45779 3.82195 2.45779 4.22107 2.70084 4.46814L3.65713 5.4345C3.90018 5.68011 4.29514 5.68011 4.53964 5.4345L5.49448 4.4696L6.44933 5.4345C6.69238 5.68011 7.08734 5.68011 7.33183 5.4345L8.28812 4.46814C8.53117 4.22253 8.53117 3.82342 8.28812 3.57634Z" fill="var(--fill-0, #1F50AB)"/>
<path id="Vector_11" d="M25.957 5.83669L25.0005 6.80326C24.7569 7.04933 24.7569 7.44829 25.0005 7.69436L25.957 8.66093C26.2005 8.907 26.5953 8.907 26.8388 8.66093L27.7953 7.69436C28.0388 7.44829 28.0388 7.04933 27.7953 6.80326L26.8388 5.83669C26.5953 5.59062 26.2005 5.59062 25.957 5.83669Z" fill="var(--fill-0, #1F50AB)"/>
<path id="Vector_12" d="M43.6112 5.83549L42.6547 6.80206C42.4112 7.04813 42.4112 7.44709 42.6547 7.69316L43.6112 8.65973C43.8548 8.9058 44.2496 8.9058 44.4931 8.65973L45.4496 7.69316C45.6931 7.44709 45.6931 7.04813 45.4496 6.80206L44.4931 5.83549C44.2496 5.58942 43.8548 5.58942 43.6112 5.83549Z" fill="var(--fill-0, #1F50AB)"/>
<g id="Group_3">
<path id="Vector_13" d="M8.24841 34.6489C7.9851 34.8755 7.71746 35.0714 7.46428 35.2658C6.88414 35.7088 6.40093 35.9837 5.53 35.9939H1.31133C1.646 35.7015 1.92426 35.4554 2.14609 35.2556C2.57288 34.8696 2.6756 34.7278 3.17038 34.6679C3.29624 34.6518 3.42355 34.646 3.55087 34.6474H4.47967C5.06704 34.6503 5.65442 34.6474 6.24179 34.6474C6.69462 34.6474 7.14744 34.6474 7.60027 34.6474C7.81728 34.6474 8.03285 34.6474 8.24986 34.6474L8.24841 34.6489Z" fill="var(--fill-0, #1F50AB)"/>
<path id="Vector_14" d="M45.2586 23.6113L44.5548 24.3225C44.3751 24.5041 44.3751 24.7984 44.5548 24.98L45.2586 25.6912C45.4383 25.8728 45.7296 25.8728 45.9093 25.6912L46.6131 24.98C46.7927 24.7984 46.7927 24.5041 46.6131 24.3225L45.9093 23.6113C45.7296 23.4297 45.4383 23.4297 45.2586 23.6113Z" fill="var(--fill-0, #1F50AB)"/>
<path id="Vector_15" d="M8.44501 25.5409C8.00376 25.1081 7.48583 24.7719 6.89122 24.5336C6.29662 24.2953 5.65427 24.1754 4.96418 24.1754C4.27408 24.1754 3.63318 24.2938 3.04291 24.5336C2.45265 24.7719 1.93472 25.1052 1.48912 25.5336C1.04353 25.9619 0.696313 26.4634 0.447475 27.0379C0.198637 27.6125 0.0742193 28.2353 0.0742193 28.9063C0.0742193 29.5773 0.198637 30.2031 0.447475 30.7805C0.696313 31.3595 1.04353 31.8653 1.48912 32.298C1.93472 32.7308 2.45265 33.0685 3.04291 33.3112C3.63318 33.5539 4.27264 33.6752 4.96418 33.6752C5.65571 33.6752 6.29662 33.5539 6.89122 33.3112C7.48583 33.0685 8.00376 32.7308 8.44501 32.298C8.88627 31.8653 9.23204 31.358 9.48087 30.7747C9.72971 30.1914 9.85413 29.5686 9.85413 28.9063C9.85413 28.244 9.72971 27.6154 9.48087 27.0452C9.23204 26.4751 8.88627 25.9736 8.44501 25.5409ZM7.81569 30.1841C7.65365 30.5773 7.43375 30.9238 7.15308 31.2235C6.87386 31.5232 6.5469 31.7586 6.17654 31.9252C5.80473 32.0934 5.40977 32.1767 4.99022 32.1767C4.57067 32.1767 4.17281 32.0934 3.79666 31.9252C3.42051 31.7571 3.08921 31.5232 2.79986 31.2235C2.51196 30.9238 2.28483 30.5773 2.11845 30.1841C1.95208 29.7908 1.86961 29.3654 1.86961 28.9063C1.86961 28.4472 1.95063 28.0233 2.11267 27.6344C2.2747 27.2455 2.49894 26.9034 2.78829 26.6081C3.07619 26.3128 3.40894 26.0833 3.78509 25.9195C4.16124 25.7558 4.56343 25.6739 4.99166 25.6739C5.4199 25.6739 5.80617 25.7558 6.17798 25.9195C6.54979 26.0833 6.87531 26.3128 7.15453 26.6081C7.43375 26.9034 7.6551 27.247 7.81713 27.6344C7.97917 28.0233 8.06018 28.4472 8.06018 28.9063C8.06018 29.3654 7.97917 29.7922 7.81713 30.1841H7.81569Z" fill="var(--fill-0, #1F50AB)"/>
<path id="Vector_16" d="M16.3486 27.2353C15.8509 26.7937 15.142 26.573 14.2248 26.573C13.7879 26.573 13.4016 26.6066 13.0645 26.6724C12.7275 26.7382 12.4063 26.8361 12.101 26.9633C11.7943 27.092 11.476 27.2572 11.1433 27.4604L11.7596 28.573C12.1184 28.3522 12.4743 28.1826 12.8287 28.0627C13.1832 27.9429 13.5217 27.8844 13.8443 27.8844C14.368 27.8844 14.7645 28.0057 15.0307 28.2484C15.2968 28.4911 15.4299 28.8244 15.4299 29.2484V29.4604H13.3843C12.5365 29.4691 11.8811 29.6607 11.4182 30.0364C10.9552 30.4121 10.7237 30.9267 10.7237 31.5802C10.7237 31.9954 10.8236 32.3682 11.0246 32.7001C11.2257 33.0305 11.5093 33.2936 11.8768 33.4881C12.2442 33.6825 12.6768 33.779 13.1745 33.779C13.7951 33.779 14.3232 33.6591 14.7616 33.4208C15.0335 33.2717 15.2563 33.0758 15.4401 32.8419L15.443 33.7001H17.1212L17.1082 29.0627C17.0995 28.2849 16.8463 27.6768 16.3486 27.2338V27.2353ZM15.1623 31.839C15.0003 32.0466 14.7818 32.2103 14.5069 32.3287C14.2321 32.4472 13.9239 32.5071 13.5825 32.5071C13.1976 32.5071 12.8938 32.415 12.671 32.2293C12.4482 32.0437 12.3368 31.801 12.3368 31.5013C12.3368 31.1752 12.4453 30.9399 12.6652 30.7995C12.8837 30.6592 13.2164 30.5875 13.662 30.5875H15.4357V31.1869C15.4054 31.4267 15.3157 31.6445 15.1637 31.8404L15.1623 31.839Z" fill="var(--fill-0, #1F50AB)"/>
<path id="Vector_17" d="M24.647 26.9034C24.2622 26.6826 23.7992 26.573 23.2567 26.573C22.6534 26.573 22.1268 26.6987 21.6769 26.9502C21.2819 27.1709 20.9723 27.5072 20.7394 27.9443V26.6373H19.0351V33.6986H20.7394V30.2279C20.7394 29.6183 20.9029 29.1124 21.2313 28.7118C21.5582 28.3098 22.0067 28.1095 22.5753 28.1095C23.0643 28.1095 23.4477 28.2557 23.7225 28.5466C23.9974 28.8376 24.1349 29.2396 24.1349 29.7528V33.7001H25.8521V29.2879C25.8521 28.7221 25.748 28.2396 25.5382 27.8376C25.3284 27.4355 25.0304 27.1241 24.647 26.9034Z" fill="var(--fill-0, #1F50AB)"/>
<path id="Vector_18" d="M32.7562 27.0233C32.2006 26.7236 31.5612 26.573 30.8349 26.573C30.1086 26.573 29.4533 26.7236 28.8948 27.0233C28.3349 27.323 27.9009 27.7426 27.5899 28.282C27.2803 28.8215 27.124 29.4487 27.124 30.1636C27.124 30.8785 27.2788 31.5057 27.5899 32.0451C27.8995 32.5846 28.3349 33.0056 28.8948 33.3097C29.4547 33.6138 30.1014 33.7673 30.8349 33.7673C31.5684 33.7673 32.2006 33.6153 32.7562 33.3097C33.3117 33.0056 33.7443 32.5831 34.0539 32.0451C34.3635 31.5057 34.5197 30.8785 34.5197 30.1636C34.5197 29.4487 34.3649 28.8215 34.0539 28.282C33.7443 27.744 33.3103 27.3244 32.7562 27.0233ZM32.5522 31.3419C32.3858 31.6782 32.1543 31.9384 31.8577 32.1241C31.5612 32.3097 31.2197 32.4018 30.8349 32.4018C30.4501 32.4018 30.0942 32.3097 29.7932 32.1241C29.4923 31.9384 29.258 31.6782 29.0916 31.3419C28.9252 31.0071 28.8427 30.6182 28.8427 30.1767C28.8427 29.7352 28.9252 29.3624 29.0916 29.0306C29.258 28.7002 29.4909 28.4385 29.7932 28.2484C30.0942 28.0583 30.4428 27.9633 30.8349 27.9633C31.227 27.9633 31.5597 28.0583 31.8577 28.2484C32.1543 28.4385 32.3858 28.6987 32.5522 29.0306C32.7185 29.3624 32.801 29.744 32.801 30.1767C32.801 30.6095 32.7185 31.0071 32.5522 31.3419Z" fill="var(--fill-0, #1F50AB)"/>
<path id="Vector_19" d="M41.6109 26.9034C41.2261 26.6826 40.7631 26.573 40.2206 26.573C39.6173 26.573 39.0907 26.6987 38.6408 26.9502C38.2458 27.1709 37.9362 27.5072 37.7033 27.9443V26.6373H35.999V33.6986H37.7033V30.2279C37.7033 29.6183 37.8668 29.1124 38.1952 28.7118C38.5221 28.3098 38.9706 28.1095 39.5392 28.1095C40.0282 28.1095 40.4116 28.2557 40.6864 28.5466C40.9613 28.8376 41.0988 29.2396 41.0988 29.7528V33.7001H42.816V29.2879C42.816 28.7221 42.7119 28.2396 42.5021 27.8376C42.2923 27.4356 41.9943 27.1242 41.6109 26.9034Z" fill="var(--fill-0, #1F50AB)"/>
<path id="Vector_20" d="M46.4357 26.6388H44.7314V33.7001H46.4357V26.6388Z" fill="var(--fill-0, #1F50AB)"/>
<path id="Vector_21" d="M53.5946 27.2353C53.097 26.7937 52.3881 26.573 51.4708 26.573C51.0339 26.573 50.6476 26.6066 50.3106 26.6724C49.9735 26.7382 49.6523 26.8361 49.347 26.9633C49.0403 27.092 48.722 27.2572 48.3893 27.4604L49.0056 28.573C49.3644 28.3522 49.7203 28.1826 50.0747 28.0627C50.4292 27.9429 50.7677 27.8844 51.0903 27.8844C51.6141 27.8844 52.0105 28.0057 52.2767 28.2484C52.5429 28.4911 52.676 28.8244 52.676 29.2484V29.4604H50.6303C49.7825 29.4691 49.1271 29.6607 48.6642 30.0364C48.2012 30.4121 47.9697 30.9267 47.9697 31.5802C47.9697 31.9954 48.0696 32.3682 48.2707 32.7001C48.4718 33.0305 48.7553 33.2936 49.1228 33.4881C49.4903 33.6825 49.9228 33.779 50.4205 33.779C51.0412 33.779 51.5692 33.6591 52.0076 33.4208C52.2796 33.2717 52.5024 33.0758 52.6861 32.8419L52.689 33.7001H54.3672L54.3542 29.0627C54.3455 28.2849 54.0923 27.6768 53.5946 27.2338V27.2353ZM52.4069 31.839C52.2448 32.0466 52.0264 32.2103 51.7515 32.3287C51.4766 32.4472 51.1685 32.5071 50.827 32.5071C50.4422 32.5071 50.1384 32.415 49.9156 32.2293C49.6928 32.0437 49.5814 31.801 49.5814 31.5013C49.5814 31.1752 49.6899 30.9399 49.9098 30.7995C50.1283 30.6592 50.461 30.5875 50.9066 30.5875H52.6803V31.1869C52.6499 31.4267 52.5602 31.6445 52.4083 31.8404L52.4069 31.839Z" fill="var(--fill-0, #1F50AB)"/>
<path id="Vector_22" d="M62.8628 27.8376C62.653 27.4355 62.3535 27.1241 61.9643 26.9034C61.5752 26.6826 61.1137 26.573 60.5813 26.573C59.9693 26.573 59.4412 26.6987 58.9942 26.9502C58.5964 27.1753 58.2839 27.5189 58.0509 27.9692V23.8698H56.3467V33.7H58.0509V30.2293C58.0509 29.6197 58.2144 29.1139 58.5428 28.7133C58.8698 28.3113 59.3226 28.111 59.8999 28.111C60.3889 28.111 60.7722 28.2572 61.0471 28.5481C61.322 28.839 61.4594 29.2411 61.4594 29.7542V33.7015H63.1767V29.2893C63.1767 28.7235 63.0711 28.2411 62.8613 27.839L62.8628 27.8376Z" fill="var(--fill-0, #1F50AB)"/>
</g>
</g>
<defs>
<clipPath id="clip0_0_10">
<rect width="95.9184" height="36.348" fill="white"/>
</clipPath>
</defs>
</svg>
