<svg preserveAspectRatio="none" width="100%" height="100%" overflow="visible" style="display: block;" viewBox="0 0 27.0397 33.8576" fill="none" xmlns="http://www.w3.org/2000/svg">
<g id="Group">
<g id="Group_2">
<path id="Vector" d="M22.7281 14.9442C22.637 12.3989 21.6286 9.92817 19.8491 8.01739C19.5352 7.67967 19.1996 7.36097 18.8451 7.06565C18.5977 6.85951 18.3344 6.65484 18.0581 6.45747C16.9036 5.63439 15.5306 4.95896 14.1461 4.95896C13.2969 4.95896 12.5055 5.13878 11.7807 5.50281C11.7662 5.51012 11.7503 5.51743 11.7359 5.52621C11.0299 5.88439 10.4135 6.3756 9.89417 6.9984C9.36177 7.63289 8.94511 8.38726 8.64564 9.25713C8.1306 10.7542 7.93384 12.6547 8.59645 14.1372C9.07242 15.2029 10.0099 16.0114 11.0602 16.5011C12.8629 17.3432 14.9505 17.2029 16.7589 16.4588C17.0092 16.3564 17.2537 16.2395 17.4881 16.1035C17.8801 15.8784 18.2447 15.6006 18.55 15.2658C18.8769 14.9076 19.0708 14.4793 19.337 14.0801C19.5757 13.722 19.7537 14.9032 19.758 14.9895C19.7869 15.5596 19.6914 16.1327 19.512 16.6722C19.065 18.0128 18.1521 19.2453 17.0121 20.0625C15.3281 21.2686 13.1175 21.6955 11.108 21.235C7.0687 20.3096 4.51088 16.2672 4.22298 12.2746C4.13617 11.0612 4.21719 10.2922 4.34884 9.28637C2.95853 10.9822 2.131 13.1255 2.131 15.4558C2.131 19.6882 4.86533 23.3037 8.72087 24.7437C9.87247 25.1735 11.1239 25.4103 12.4332 25.4103C17.0483 25.4103 20.9559 22.4776 22.2666 18.4368C22.2796 18.3973 22.2927 18.3578 22.3042 18.3184C22.5719 17.4178 22.7151 16.4997 22.7368 15.586V15.5816C22.7426 15.3696 22.7412 15.1576 22.7339 14.9456L22.7281 14.9442ZM16.7777 12.5714C15.8431 12.5568 14.8999 12.5904 13.9667 12.5056C13.4633 12.4588 12.9598 12.3682 12.4838 12.1942C12.4274 12.1723 12.371 12.1504 12.3146 12.127C11.785 11.9062 11.4147 11.5656 11.1991 11.0203C10.9387 10.3653 11.2715 9.59631 11.9196 9.33608C12.6922 9.02468 13.741 9.50128 14.4152 9.87847C15.1429 10.2878 15.7954 10.8244 16.4247 11.3726C16.8573 11.7498 17.2725 12.1679 17.6516 12.6065C17.3622 12.586 17.07 12.5772 16.7792 12.5729L16.7777 12.5714Z" fill="var(--fill-0, white)"/>
<path id="Vector_2" d="M26.9744 12.3068C26.5259 7.81709 23.9695 4.04377 20.3903 1.90638C20.2022 1.79089 20.0069 1.69148 19.8101 1.58475C19.7769 1.56867 19.745 1.54382 19.7045 1.52627C19.5656 1.45171 19.4181 1.37862 19.272 1.30406C19.1417 1.24558 19.0101 1.18856 18.8799 1.13154C16.8371 0.239747 14.5498 -0.172526 12.1815 0.0672359C4.76412 0.818684 -0.675605 7.52032 0.0680156 15.0158C0.157713 15.9237 0.329883 16.7994 0.583061 17.64C0.664078 17.8959 0.746541 18.1605 0.844919 18.4075C1.0084 18.8534 1.18779 19.2833 1.39178 19.6955C1.1386 19.1093 0.934613 18.4982 0.778366 17.8798C0.737858 17.7307 0.704586 17.5903 0.672758 17.4426C0.664077 17.409 0.66407 17.3769 0.656837 17.352C0.607648 17.1049 0.567143 16.8652 0.533868 16.6181C0.296604 14.8769 0.44417 13.0524 1.0489 11.2776C2.09489 8.23229 4.26789 5.92093 6.95447 4.61686C6.95013 4.62417 6.94289 4.6344 6.93421 4.64902C8.54298 3.81132 10.3673 3.33911 12.3016 3.33911C17.8093 3.33911 22.4316 7.16944 23.7018 12.3375C23.9565 13.3038 24.091 14.3214 24.091 15.371C24.091 15.5114 24.091 15.643 24.0823 15.7833C23.9926 18.4821 22.9799 20.9587 21.3625 22.8738C20.3555 24.0653 19.1143 25.0478 17.7095 25.7481C16.1846 26.5083 14.4659 26.9352 12.6474 26.9352H12.426C12.303 26.9352 12.1815 26.9264 12.0585 26.9264C11.2006 26.8767 10.3601 26.7363 9.55859 26.5053C8.77446 26.308 7.68796 25.9688 7.41018 25.8445C7.57366 25.9279 7.73715 26.001 7.89195 26.0843C8.54587 26.3884 9.22584 26.6398 9.9275 26.8358C11.4914 27.2714 13.1566 27.4278 14.8594 27.2568C14.9491 27.248 15.0388 27.2407 15.1213 27.2232C18.7309 26.7948 21.8515 24.9454 23.9912 22.2949C26.1714 19.5873 27.3404 16.0465 26.9729 12.3068H26.9744Z" fill="var(--fill-0, white)"/>
</g>
<path id="Vector_3" d="M23.2807 30.074C22.5386 30.71 21.7863 31.264 21.073 31.8094C19.4397 33.0564 18.0812 33.8269 15.6304 33.8576H3.75999C4.70326 33.0359 5.48642 32.343 6.10948 31.7787C7.31027 30.6924 7.59962 30.2962 8.99138 30.1266C9.34727 30.0828 9.70461 30.0667 10.0634 30.0682L12.6748 30.074C14.3269 30.0769 15.9805 30.0682 17.6327 30.0696C18.9058 30.0696 20.1804 30.0725 21.4535 30.074C22.0626 30.074 22.6702 30.074 23.2793 30.0755L23.2807 30.074Z" fill="var(--fill-0, white)"/>
</g>
</svg>
