<svg preserveAspectRatio="none" width="100%" height="100%" overflow="visible" style="display: block;" viewBox="0 0 27 34" fill="none" xmlns="http://www.w3.org/2000/svg">
<g id="Group">
<g id="Group_2">
<path id="Vector" d="M22.6947 15.0071C22.6037 12.4511 21.5968 9.96997 19.82 8.05115C19.5065 7.71202 19.1713 7.39197 18.8174 7.09541C18.5704 6.8884 18.3075 6.68287 18.0315 6.48467C16.8788 5.65813 15.5078 4.97986 14.1253 4.97986C13.2774 4.97986 12.4871 5.16044 11.7634 5.526C11.749 5.53334 11.7331 5.54068 11.7186 5.54949C11.0137 5.90917 10.3983 6.40246 9.87964 7.02787C9.34802 7.66504 8.93198 8.42258 8.63294 9.29611C8.11866 10.7995 7.92219 12.708 8.58382 14.1967C9.0591 15.2669 9.99521 16.0788 11.044 16.5706C12.844 17.4162 14.9285 17.2753 16.7343 16.528C16.9842 16.4253 17.2283 16.3078 17.4624 16.1713C17.8539 15.9452 18.2179 15.6662 18.5227 15.3301C18.8492 14.9704 19.0428 14.5402 19.3086 14.1394C19.5469 13.7797 19.7246 14.966 19.729 15.0526C19.7579 15.6251 19.6625 16.2006 19.4834 16.7424C19.037 18.0886 18.1255 19.3263 16.9871 20.1469C15.3056 21.3581 13.0982 21.7868 11.0917 21.3244C7.05833 20.395 4.50426 16.3357 4.21678 12.3263C4.13011 11.1078 4.211 10.3355 4.34246 9.32547C2.9542 11.0285 2.12788 13.1807 2.12788 15.5209C2.12788 19.7711 4.85819 23.4017 8.70807 24.8478C9.85797 25.2794 11.1076 25.5173 12.4149 25.5173C17.0232 25.5173 20.9251 22.5722 22.2339 18.5144C22.2469 18.4747 22.2599 18.4351 22.2715 18.3955C22.5387 17.4911 22.6817 16.5691 22.7034 15.6516V15.6472C22.7092 15.4343 22.7077 15.2214 22.7005 15.0085L22.6947 15.0071ZM16.7531 12.6243C15.8199 12.6096 14.878 12.6434 13.9462 12.5583C13.4435 12.5113 12.9408 12.4203 12.4655 12.2455C12.4091 12.2235 12.3528 12.2015 12.2965 12.178C11.7677 11.9563 11.3979 11.6143 11.1827 11.0667C10.9226 10.4089 11.2549 9.63671 11.9021 9.37539C12.6735 9.06268 13.7208 9.54128 14.394 9.92006C15.1207 10.3311 15.7722 10.8699 16.4006 11.4205C16.8325 11.7992 17.2471 12.2191 17.6256 12.6596C17.3367 12.639 17.0449 12.6302 16.7545 12.6258L16.7531 12.6243Z" fill="var(--fill-0, #1F50AB)"/>
<path id="Vector_2" d="M26.9347 12.3586C26.4869 7.84998 23.9343 4.06078 20.3603 1.9144C20.1725 1.79842 19.9775 1.69859 19.781 1.59142C19.7478 1.57527 19.716 1.55031 19.6756 1.5327C19.5369 1.45782 19.3895 1.38442 19.2436 1.30954C19.1136 1.25082 18.9821 1.19356 18.8521 1.1363C16.8123 0.240756 14.5284 -0.173252 12.1636 0.0675188C4.75711 0.822129 -0.674612 7.55196 0.0679156 15.079C0.157481 15.9907 0.329398 16.8701 0.582204 17.7142C0.663102 17.9712 0.745444 18.2369 0.843677 18.485C1.00692 18.9328 1.18604 19.3644 1.38973 19.7784C1.13693 19.1897 0.933239 18.576 0.777222 17.955C0.736773 17.8053 0.70355 17.6643 0.671769 17.516C0.663101 17.4823 0.663094 17.45 0.655871 17.425C0.606755 17.1769 0.566309 16.9361 0.533083 16.688C0.296168 14.9395 0.443517 13.1073 1.04736 11.325C2.09181 8.26693 4.26161 5.94584 6.94424 4.63629C6.93991 4.64363 6.93269 4.6539 6.92402 4.66858C8.53042 3.82736 10.3521 3.35315 12.2835 3.35315C17.7831 3.35315 22.3986 7.19961 23.667 12.3894C23.9213 13.3598 24.0556 14.3816 24.0556 15.4357C24.0556 15.5767 24.0556 15.7088 24.0469 15.8497C23.9574 18.5599 22.9461 21.0468 21.3311 22.9701C20.3256 24.1666 19.0862 25.1532 17.6834 25.8564C16.1608 26.6198 14.4446 27.0485 12.6288 27.0485H12.4077C12.285 27.0485 12.1636 27.0397 12.0408 27.0397C11.1842 26.9898 10.3448 26.8488 9.54454 26.6169C8.76156 26.4187 7.67665 26.0781 7.39929 25.9533C7.56253 26.037 7.72577 26.1104 7.88035 26.194C8.53331 26.4994 9.21227 26.7519 9.91291 26.9487C11.4745 27.3862 13.1373 27.5432 14.8376 27.3715C14.9271 27.3627 15.0167 27.3553 15.099 27.3377C18.7033 26.9076 21.8194 25.0504 23.9559 22.3887C26.1329 19.6698 27.3002 16.114 26.9333 12.3586H26.9347Z" fill="var(--fill-0, #1F50AB)"/>
</g>
<path id="Vector_3" d="M23.2465 30.2005C22.5054 30.8392 21.7542 31.3956 21.042 31.9432C19.4111 33.1955 18.0546 33.9692 15.6074 34H3.75445C4.69634 33.1749 5.47835 32.4791 6.10049 31.9124C7.29951 30.8216 7.58844 30.4237 8.97815 30.2534C9.33353 30.2094 9.69034 30.1932 10.0486 30.1947L12.6561 30.2005C14.3059 30.2035 15.957 30.1947 17.6068 30.1961C18.878 30.1961 20.1507 30.1991 21.422 30.2005C22.0302 30.2005 22.6369 30.2005 23.2451 30.202L23.2465 30.2005Z" fill="var(--fill-0, #1F50AB)"/>
</g>
</svg>
